<svg xmlns="http://www.w3.org/2000/svg" viewBox="0 0 98 98"><defs><style>.cls-1{fill:#666;}.cls-2{fill:#7c7c7c;}.cls-3{fill:#999;}.cls-4{fill:#ccc;}.cls-5{fill:#afafaf;}</style></defs><title>ruby</title><g id="Calque_2" data-name="Calque 2"><g id="Calque_1-2" data-name="Calque 1"><polygon class="cls-1" points="98 21.78 92.56 92.56 21.78 98 98 21.78"/><polygon class="cls-2" points="59.89 59.89 92.56 92.56 98 21.78 59.89 59.89"/><ellipse class="cls-3" cx="49" cy="49" rx="61.58" ry="31.75" transform="translate(-20.3 49) rotate(-45)"/><polygon class="cls-4" points="10.89 29.95 29.95 10.89 51.72 0 68.06 10.89 59.89 35.39 35.39 57.17 10.89 65.33 0 49 10.89 29.95"/><path class="cls-5" d="M68.06,10.89,51.72,0h30ZM98,24.5,68.06,10.89l-8.17,24.5ZM35.39,57.17l36,14.25-11.53-36Zm-24.5,8.16L21.78,98,35.39,57.17ZM0,49V78.94L10.89,65.33Z"/></g></g></svg>