<svg xmlns="http://www.w3.org/2000/svg" viewBox="0 0 94 94"><defs><style>.cls-1{fill:#ccc;}</style></defs><title>js</title><g id="Calque_2" data-name="Calque 2"><g id="Calque_1-2" data-name="Calque 1"><path class="cls-1" d="M6,0A6,6,0,0,0,0,6V88a6,6,0,0,0,6,6H88a6,6,0,0,0,6-6V6a6,6,0,0,0-6-6ZM6,4.48H88A1.48,1.48,0,0,1,89.52,6V88A1.48,1.48,0,0,1,88,89.52H6A1.48,1.48,0,0,1,4.48,88V6A1.48,1.48,0,0,1,6,4.48Zm36.55,38V70.67c0,4.32-1.63,5.43-4.47,5.43s-5-1.85-6.4-4.26l-7,4.26a15.71,15.71,0,0,0,14,9c7.66,0,12.91-4.08,12.91-13V42.52Zm27.88,0c-7.63,0-12.51,4.87-12.51,11.28,0,6.95,4.09,10.24,10.25,12.86l2.14.92c3.9,1.7,5.82,2.74,5.82,5.67,0,2.44-1.86,4.21-5.4,4.21-4.21,0-6.2-2.86-8-5.85L56,76.1c2.51,5,7,9,15,9,8.11,0,14.15-4.21,14.15-11.9C85.05,66,81,62.84,73.7,59.73l-2.14-.91c-3.67-1.59-5.25-2.62-5.25-5.18,0-2.08,1.58-3.67,4.09-3.67s4,1,5.49,3.67l6.65-4.28C79.73,44.42,75.82,42.53,70.4,42.53Z"/></g></g></svg>
