<svg xmlns="http://www.w3.org/2000/svg" viewBox="0 0 99.76 35.08"><defs><style>.cls-1{fill:#ccc;}</style></defs><title>ruby-on-rails</title><g id="Calque_2" data-name="Calque 2"><g id="Calque_1-2" data-name="Calque 1"><path class="cls-1" d="M86.84,30.52v4.56h8.24a4.71,4.71,0,0,0,4.68-4.69V28.63a4.65,4.65,0,0,0-4.68-4.69H91V21.82h8.14V17.24H91.3A4.79,4.79,0,0,0,86.59,22v1.59a4.7,4.7,0,0,0,4.71,4.68c5.67,0-1.36,0,3.88,0v2.22M42.69,29.41S47.1,29,47.1,23.33a6,6,0,0,0-5.34-6.22H32.13v18H37V30.74l4.18,4.34h7.16Zm-1.87-3.68H37V21.62h3.88a2,2,0,0,1,1.08,2A2.08,2.08,0,0,1,40.82,25.73ZM59,17.24H54.13a4.72,4.72,0,0,0-4.69,4.68V35.08h4.92V31.93H59v3.15h4.76V21.92A4.64,4.64,0,0,0,59,17.24ZM59,26.84H54.33V22.48s0-1,1.54-1h1.69c1.36,0,1.38,1,1.38,1v4.36Z"/><rect class="cls-1" x="65.97" y="17.24" width="5.12" height="17.84"/><polygon class="cls-1" points="78.27 30.47 78.27 17.24 73.18 17.24 73.18 30.47 73.18 35.08 78.27 35.08 85.15 35.08 85.15 30.47 78.27 30.47"/><path class="cls-1" d="M1.76,35.08H21.67s-3.8-17.36,8.8-24.4C33.21,9.35,42,4.36,56.27,14.94c.45-.37.88-.68.88-.68S44.05,1.18,29.46,2.65C22.13,3.3,13.1,10,7.81,18.8A43.66,43.66,0,0,0,1.76,35.08Z"/><path class="cls-1" d="M1.76,35.08H21.67s-3.8-17.36,8.8-24.4C33.21,9.35,42,4.36,56.27,14.94c.45-.37.88-.68.88-.68S44.05,1.18,29.46,2.65C22.13,3.3,13.1,10,7.81,18.8A43.66,43.66,0,0,0,1.76,35.08Z"/><path class="cls-1" d="M1.76,35.08H21.67s-3.8-17.36,8.8-24.4C33.21,9.35,42,4.36,56.27,14.94c.45-.37.88-.68.88-.68S44.05,1.18,29.46,2.65C22.1,3.3,13.08,10,7.79,18.8A43.16,43.16,0,0,0,1.76,35.08Zm41.48-31,.1-1.69a11.5,11.5,0,0,0-2.44-.88l-.1,1.66C41.63,3.43,42.44,3.73,43.24,4.06Z"/><path class="cls-1" d="M40.85,9.4,40.75,11a13.23,13.23,0,0,1,2.49.3l.1-1.56A17.21,17.21,0,0,0,40.85,9.4ZM31.52,1.54h.26L31.27,0a20.4,20.4,0,0,0-2.42.15l.48,1.49A20.06,20.06,0,0,1,31.52,1.54Zm1.21,9.27.58,1.74a15.52,15.52,0,0,1,2.2-.88L35,10A19,19,0,0,0,32.73,10.81ZM21.29,4.18,20.16,2.44c-.63.33-1.29.68-2,1.09l1.16,1.76C20,4.89,20.64,4.51,21.29,4.18Zm5.17,11.34,1.21,1.82a13.73,13.73,0,0,1,1.49-1.79L28,13.83A13.64,13.64,0,0,0,26.46,15.52Zm-3.65,8.12,2,1.61a19,19,0,0,1,.53-2.95l-1.82-1.43A22.85,22.85,0,0,0,22.81,23.64Zm-11-12L10,10.1c-.66.63-1.29,1.26-1.87,1.89l1.94,1.67A24.76,24.76,0,0,1,11.77,11.67ZM4.16,22.93l-2.9-1.06C.78,23,.25,24.22,0,24.9L2.9,26C3.23,25.1,3.75,23.86,4.16,22.93ZM22.43,30a24.74,24.74,0,0,0,.3,3.17l3,1.09c-.22-1-.45-2.1-.6-3.28Z"/></g></g></svg>
